:SAMPLES-PER-SECOND 30
:FULLY-SPECIFIED
:DEGREES
652
root  4.0357 38.6927 3.83172 152.905 79.9714 157.802
RightUpLeg  -12.003 -13.8522 -13.3121
RightLeg  -1.40788 -4.69364 0.994507
RightFoot  -6.46759 -0.521066 11.1502
RightToes  7.56698e-010 0 -3.6325e-017
Spine  17.5266 -1.65865 -0.929203
Spine1  5.37718 -1.20639 -2.86764
HEad  -28.7938 -3.38872 -5.41226
LeftShoulder1  0.203286 2.87334 -26.0127
LeftArm  -4.48235 -8.96076 -52.634
LeftForeArm  25.3033 -8.03499 -7.8447
LeftHand  -0.0480385 8.82397 0.0917569
RightShoulder  -0.185038 -4.05879 25.5478
RightArm  12.3441 0.273269 49.8196
RightForeArm  6.23747 25.6944 5.1853
RightHand  -0.818912 6.43216 -8.3618
LeftUpLeg  2.41813 4.6582 0.893312
LeftLeg  20.6809 -2.4111 -0.667054
LeftFoot  -16.4089 0.0109799 -1.98244
LeftToes  -2.88401e-009 5.30678e-011 -1.08654e-010
653
root  3.34087 38.9429 3.72096 152.439 81.0231 157.095
RightUpLeg  -12.3781 -14.1279 -12.7224
RightLeg  3.50198 -4.4143 1.0405
RightFoot  -6.9884 -0.419808 9.77161
RightToes  7.56698e-010 0 -3.6325e-017
Spine  17.4966 -1.48369 -0.427916
Spine1  4.93714 -0.758096 -3.86978
HEad  -28.1968 -2.83582 -6.27309
LeftShoulder1  0.125913 3.11789 -26.4952
LeftArm  -7.47317 -4.05081 -48.1303
LeftForeArm  23.4828 -5.95126 -6.68714
LeftHand  -0.0933907 9.72021 -1.05543
RightShoulder  -0.177078 -4.03242 25.6081
RightArm  14.0397 0.549357 50.2012
RightForeArm  8.93787 26.9594 5.32861
RightHand  -0.746809 6.79671 -7.44229
LeftUpLeg  2.09296 5.39537 0.747016
LeftLeg  18.6229 -2.02098 -0.366148
LeftFoot  -14.5094 0.0371875 -1.79273
LeftToes  -2.88401e-009 5.30678e-011 -1.08654e-010
654
root  2.75376 39.1412 3.68951 155.024 81.4689 159.849
RightUpLeg  -11.8727 -15.8331 -11.8793
RightLeg  9.36082 -2.49563 0.597371
RightFoot  -7.38811 -0.361778 9.01053
RightToes  7.56698e-010 0 -3.6325e-017
Spine  17.6007 -1.55647 -0.476211
Spine1  4.64386 -0.887583 -3.9554
HEad  -27.8399 -2.34606 -6.46811
LeftShoulder1  0.0598441 3.32392 -27.0528
LeftArm  -9.19771 1.04772 -43.5622
LeftForeArm  21.1119 -4.07903 -5.66685
LeftHand  -0.0996687 10.8456 -0.82553
RightShoulder  -0.158455 -3.97818 25.3263
RightArm  14.8343 0.262903 50.5335
RightForeArm  11.5773 28.5719 5.55805
RightHand  -0.790312 6.5536 -8.00251
LeftUpLeg  2.08566 6.16859 1.20846
LeftLeg  16.9697 -2.47698 -0.389711
LeftFoot  -12.9294 0.0569763 -1.49156
LeftToes  -2.88401e-009 5.30678e-011 -1.08654e-010
655
root  2.19406 39.2769 3.69641 155.409 81.6257 160.177
RightUpLeg  -11.6418 -17.8754 -11.5034
RightLeg  16.3487 -0.116107 -0.202932
RightFoot  -7.43502 -0.334561 8.31511
RightToes  7.56698e-010 0 -3.6325e-017
Spine  17.4785 -1.5059 -0.708058
Spine1  4.4414 -0.846443 -4.38334
HEad  -27.6656 -1.84737 -6.39632
LeftShoulder1  0.0834128 3.24922 -26.4826
LeftArm  -10.1035 6.12318 -39.9793
LeftForeArm  18.4176 -2.41988 -4.9284
LeftHand  -0.14456 12.4859 -1.19739
RightShoulder  -0.242892 -4.23139 25.9488
RightArm  15.1055 -0.144853 49.9583
RightForeArm  12.4071 29.8787 5.82348
RightHand  -0.783601 6.9881 -7.67727
LeftUpLeg  1.79062 6.91915 1.28565
LeftLeg  15.5717 -2.96766 -0.577948
LeftFoot  -11.529 0.0671164 -1.37756
LeftToes  -2.88401e-009 5.30678e-011 -1.08654e-010
656
root  1.67815 39.3399 3.74431 153.248 81.8263 157.954
RightUpLeg  -11.0945 -16.9254 -12.3876
RightLeg  23.5843 -0.642968 -0.542497
RightFoot  -7.43464 -0.317965 7.8191
RightToes  7.56698e-010 0 -3.6325e-017
Spine  17.4243 -1.28663 -1.36179
Spine1  4.08824 -0.772031 -4.56941
HEad  -27.1358 -1.40112 -6.48733
LeftShoulder1  0.019246 3.44342 -26.2024
LeftArm  -10.2577 11.1975 -36.2482
LeftForeArm  16.439 -2.22103 -4.55447
LeftHand  -0.147755 12.0715 -1.32883
RightShoulder  -0.267307 -4.29861 26.2977
RightArm  14.483 -1.03299 49.289
RightForeArm  11.9795 30.8662 6.08858
RightHand  -0.794702 7.13415 -7.69939
LeftUpLeg  1.41689 7.45363 1.11513
LeftLeg  14.581 -3.03342 -0.821986
LeftFoot  -10.4759 0.0736887 -1.42443
LeftToes  -2.88401e-009 5.30678e-011 -1.08654e-010
657
root  1.19805 39.3548 3.79519 150.392 81.7368 154.877
RightUpLeg  -10.24 -16.0261 -13.6162
RightLeg  30.129 -1.26971 -1.02695
RightFoot  -7.94569 -0.280387 7.64833
RightToes  7.56698e-010 0 -3.6325e-017
Spine  17.0507 -0.996932 -1.93725
Spine1  4.03234 -0.674673 -4.45029
HEad  -26.9998 -1.31783 -6.76594
LeftShoulder1  -0.0531309 3.66583 -26.709
LeftArm  -9.76573 15.723 -32.2967
LeftForeArm  14.5457 -3.20122 -4.54261
LeftHand  -0.0616087 11.9056 0.039703
RightShoulder  -0.277599 -4.33671 25.999
RightArm  13.6761 -2.03207 48.7473
RightForeArm  10.786 31.1094 6.21678
RightHand  -0.798647 7.39981 -7.58593
LeftUpLeg  0.691874 7.56154 0.683197
LeftLeg  14.0352 -2.98342 -1.12025
LeftFoot  -9.59387 0.0789113 -1.40972
LeftToes  -2.88401e-009 5.30678e-011 -1.08654e-010
